<svg xmlns="http://www.w3.org/2000/svg" viewBox="0 0 24 24">
  <path fill="white" stroke="black" stroke-width="0.75" d="M4 4V6H6V8H4V12H6V8H8V10H10V12H14V10H16V8H18V12H20V8H18V6H20V4H16V8H14V10H10V8H8V4H4Z" />
  <path fill="white" stroke="black" stroke-width="0.75" d="M8 14H6V16H8V14Z" />
  <path fill="white" stroke="black" stroke-width="0.75" d="M8 18H10V20H8V18Z" />
  <path fill="white" stroke="black" stroke-width="0.75" d="M18 14H16V16H18V14Z" />
  <path fill="white" stroke="black" stroke-width="0.75" d="M16 18H14V20H16V18Z" />
  <path fill="white" stroke="black" stroke-width="0.75" d="M16 18H14V20H16V18Z" />
</svg>
